HIERARCHY
ROOT Character1_Hips
{
	OFFSET 0.000000 86.858185 1.182688
	CHANNELS 6 Xposition Yposition Zposition Xrotation Yrotation Zrotation
	JOINT Character1_LeftUpLeg
	{
		OFFSET 7.276832 -6.057800 0.207883
		CHANNELS 6 Xposition Yposition Zposition Xrotation Yrotation Zrotation
		JOINT Character1_LeftLeg
		{
			OFFSET -1.823140 -35.110466 -1.568847
			CHANNELS 6 Xposition Yposition Zposition Xrotation Yrotation Zrotation
			JOINT Character1_LeftFoot
			{
				OFFSET -1.031196 -37.817070 -1.726818
				CHANNELS 6 Xposition Yposition Zposition Xrotation Yrotation Zrotation
				JOINT Character1_LeftToeBase
				{
					OFFSET 0.202457 -5.287532 8.122427
					CHANNELS 6 Xposition Yposition Zposition Xrotation Yrotation Zrotation
					End Site
					{
						OFFSET 0.009223 0.000047 9.693953
					}
				}
			}
		}
	}
	JOINT Character1_RightUpLeg
	{
		OFFSET -7.276832 -6.057770 0.207879
		CHANNELS 6 Xposition Yposition Zposition Xrotation Yrotation Zrotation
		JOINT Character1_RightLeg
		{
			OFFSET 1.823196 -35.109627 -1.587624
			CHANNELS 6 Xposition Yposition Zposition Xrotation Yrotation Zrotation
			JOINT Character1_RightFoot
			{
				OFFSET 1.031267 -37.817833 -1.710079
				CHANNELS 6 Xposition Yposition Zposition Xrotation Yrotation Zrotation
				JOINT Character1_RightToeBase
				{
					OFFSET -0.202449 -5.287759 8.122276
					CHANNELS 6 Xposition Yposition Zposition Xrotation Yrotation Zrotation
					End Site
					{
						OFFSET 0.001154 -0.000006 9.693956
					}
				}
			}
		}
	}
	JOINT Character1_Spine
	{
		OFFSET -0.000001 2.271347 0.818150
		CHANNELS 6 Xposition Yposition Zposition Xrotation Yrotation Zrotation
		JOINT Character1_Spine1
		{
			OFFSET -0.000001 9.085945 0.955446
			CHANNELS 6 Xposition Yposition Zposition Xrotation Yrotation Zrotation
			JOINT Character1_Spine2
			{
				OFFSET -0.000002 8.765564 -0.142866
				CHANNELS 6 Xposition Yposition Zposition Xrotation Yrotation Zrotation
				JOINT Character1_LeftShoulder
				{
					OFFSET 4.211487 11.612236 -3.873799
					CHANNELS 6 Xposition Yposition Zposition Xrotation Yrotation Zrotation
					JOINT Character1_LeftArm
					{
						OFFSET 5.543700 0.000031 -0.000005
						CHANNELS 6 Xposition Yposition Zposition Xrotation Yrotation Zrotation
						JOINT Character1_LeftForeArm
						{
							OFFSET 23.377409 -0.123474 0.033367
							CHANNELS 6 Xposition Yposition Zposition Xrotation Yrotation Zrotation
							JOINT Character1_LeftHand
							{
								OFFSET 16.247719 -0.118858 0.035829
								CHANNELS 6 Xposition Yposition Zposition Xrotation Yrotation Zrotation
								JOINT Character1_LeftHandThumb1
								{
									OFFSET 2.510399 -0.904045 2.091601
									CHANNELS 6 Xposition Yposition Zposition Xrotation Yrotation Zrotation
									JOINT Character1_LeftHandThumb2
									{
										OFFSET 2.570465 -1.130470 1.584520
										CHANNELS 6 Xposition Yposition Zposition Xrotation Yrotation Zrotation
										JOINT Character1_LeftHandThumb3
										{
											OFFSET 1.420841 -0.605858 0.842600
											CHANNELS 6 Xposition Yposition Zposition Xrotation Yrotation Zrotation
											JOINT Character1_LeftHandThumb4
											{
												OFFSET 2.153469 -0.757797 1.312965
												CHANNELS 6 Xposition Yposition Zposition Xrotation Yrotation Zrotation
												End Site
												{
													OFFSET 2.158772 -0.733734 1.317914
												}
											}
										}
									}
								}
								JOINT Character1_LeftHandIndex1
								{
									OFFSET 8.043888 0.989311 2.480770
									CHANNELS 6 Xposition Yposition Zposition Xrotation Yrotation Zrotation
									JOINT Character1_LeftHandIndex2
									{
										OFFSET 2.427021 0.011856 0.268371
										CHANNELS 6 Xposition Yposition Zposition Xrotation Yrotation Zrotation
										JOINT Character1_LeftHandIndex3
										{
											OFFSET 1.609932 0.007866 0.037315
											CHANNELS 6 Xposition Yposition Zposition Xrotation Yrotation Zrotation
											JOINT Character1_LeftHandIndex4
											{
												OFFSET 2.130016 0.049431 0.114431
												CHANNELS 6 Xposition Yposition Zposition Xrotation Yrotation Zrotation
												End Site
												{
													OFFSET 2.119099 0.211617 -0.131005
												}
											}
										}
									}
								}
								JOINT Character1_LeftHandMiddle1
								{
									OFFSET 8.038177 1.007423 0.439338
									CHANNELS 6 Xposition Yposition Zposition Xrotation Yrotation Zrotation
									JOINT Character1_LeftHandMiddle2
									{
										OFFSET 2.527046 -0.234444 -0.080977
										CHANNELS 6 Xposition Yposition Zposition Xrotation Yrotation Zrotation
										JOINT Character1_LeftHandMiddle3
										{
											OFFSET 1.931313 -0.179352 -0.117768
											CHANNELS 6 Xposition Yposition Zposition Xrotation Yrotation Zrotation
											JOINT Character1_LeftHandMiddle4
											{
												OFFSET 2.196999 0.041229 -0.161456
												CHANNELS 6 Xposition Yposition Zposition Xrotation Yrotation Zrotation
												End Site
												{
													OFFSET 2.197571 -0.071640 -0.141814
												}
											}
										}
									}
								}
								JOINT Character1_LeftHandRing1
								{
									OFFSET 7.662090 0.616508 -1.366725
									CHANNELS 6 Xposition Yposition Zposition Xrotation Yrotation Zrotation
									JOINT Character1_LeftHandRing2
									{
										OFFSET 2.249855 -0.592636 -0.461933
										CHANNELS 6 Xposition Yposition Zposition Xrotation Yrotation Zrotation
										JOINT Character1_LeftHandRing3
										{
											OFFSET 1.521790 -0.400856 -0.248318
											CHANNELS 6 Xposition Yposition Zposition Xrotation Yrotation Zrotation
											JOINT Character1_LeftHandRing4
											{
												OFFSET 2.446365 -0.396080 -0.528466
												CHANNELS 6 Xposition Yposition Zposition Xrotation Yrotation Zrotation
												End Site
												{
													OFFSET 2.437840 -0.527443 -0.446790
												}
											}
										}
									}
								}
								JOINT Character1_LeftHandPinky1
								{
									OFFSET 6.585136 -0.139000 -2.766160
									CHANNELS 6 Xposition Yposition Zposition Xrotation Yrotation Zrotation
									JOINT Character1_LeftHandPinky2
									{
										OFFSET 1.631428 -0.600632 -0.502815
										CHANNELS 6 Xposition Yposition Zposition Xrotation Yrotation Zrotation
										JOINT Character1_LeftHandPinky3
										{
											OFFSET 1.227242 -0.468956 -0.457904
											CHANNELS 6 Xposition Yposition Zposition Xrotation Yrotation Zrotation
											JOINT Character1_LeftHandPinky4
											{
												OFFSET 1.696033 -0.584229 -0.687828
												CHANNELS 6 Xposition Yposition Zposition Xrotation Yrotation Zrotation
												End Site
												{
													OFFSET 1.705387 -0.567787 -0.678411
												}
											}
										}
									}
								}
							}
						}
					}
				}
				JOINT Character1_RightShoulder
				{
					OFFSET -4.211487 11.612236 -3.873799
					CHANNELS 6 Xposition Yposition Zposition Xrotation Yrotation Zrotation
					JOINT Character1_RightArm
					{
						OFFSET -5.543744 0.000023 -0.000004
						CHANNELS 6 Xposition Yposition Zposition Xrotation Yrotation Zrotation
						JOINT Character1_RightForeArm
						{
							OFFSET -23.377581 -0.123566 0.033386
							CHANNELS 6 Xposition Yposition Zposition Xrotation Yrotation Zrotation
							JOINT Character1_RightHand
							{
								OFFSET -16.247574 -0.118851 0.036247
								CHANNELS 6 Xposition Yposition Zposition Xrotation Yrotation Zrotation
								JOINT Character1_RightHandThumb1
								{
									OFFSET -2.510384 -0.904091 2.091566
									CHANNELS 6 Xposition Yposition Zposition Xrotation Yrotation Zrotation
									JOINT Character1_RightHandThumb2
									{
										OFFSET -2.579426 -1.121681 1.537416
										CHANNELS 6 Xposition Yposition Zposition Xrotation Yrotation Zrotation
										JOINT Character1_RightHandThumb3
										{
											OFFSET -1.429546 -0.616760 0.819528
											CHANNELS 6 Xposition Yposition Zposition Xrotation Yrotation Zrotation
											JOINT Character1_RightHandThumb4
											{
												OFFSET -2.167622 -0.774658 1.279505
												CHANNELS 6 Xposition Yposition Zposition Xrotation Yrotation Zrotation
												End Site
												{
													OFFSET -2.137974 -0.606712 1.413074
												}
											}
										}
									}
								}
								JOINT Character1_RightHandIndex1
								{
									OFFSET -8.043800 0.988876 2.481294
									CHANNELS 6 Xposition Yposition Zposition Xrotation Yrotation Zrotation
									JOINT Character1_RightHandIndex2
									{
										OFFSET -2.426987 0.011948 0.268470
										CHANNELS 6 Xposition Yposition Zposition Xrotation Yrotation Zrotation
										JOINT Character1_RightHandIndex3
										{
											OFFSET -1.609989 0.007927 0.037374
											CHANNELS 6 Xposition Yposition Zposition Xrotation Yrotation Zrotation
											JOINT Character1_RightHandIndex4
											{
												OFFSET -2.129982 0.049034 0.114512
												CHANNELS 6 Xposition Yposition Zposition Xrotation Yrotation Zrotation
												End Site
												{
													OFFSET -2.123772 0.204735 0.006035
												}
											}
										}
									}
								}
								JOINT Character1_RightHandMiddle1
								{
									OFFSET -8.038174 1.006859 0.439860
									CHANNELS 6 Xposition Yposition Zposition Xrotation Yrotation Zrotation
									JOINT Character1_RightHandMiddle2
									{
										OFFSET -2.526997 -0.234062 -0.080875
										CHANNELS 6 Xposition Yposition Zposition Xrotation Yrotation Zrotation
										JOINT Character1_RightHandMiddle3
										{
											OFFSET -1.931465 -0.179070 -0.117694
											CHANNELS 6 Xposition Yposition Zposition Xrotation Yrotation Zrotation
											JOINT Character1_RightHandMiddle4
											{
												OFFSET -2.196987 0.042816 -0.161370
												CHANNELS 6 Xposition Yposition Zposition Xrotation Yrotation Zrotation
												End Site
												{
													OFFSET -2.184029 -0.187660 -0.222307
												}
											}
										}
									}
								}
								JOINT Character1_RightHandRing1
								{
									OFFSET -7.662136 0.615837 -1.366219
									CHANNELS 6 Xposition Yposition Zposition Xrotation Yrotation Zrotation
									JOINT Character1_RightHandRing2
									{
										OFFSET -2.249901 -0.592049 -0.461829
										CHANNELS 6 Xposition Yposition Zposition Xrotation Yrotation Zrotation
										JOINT Character1_RightHandRing3
										{
											OFFSET -1.521889 -0.400475 -0.248259
											CHANNELS 6 Xposition Yposition Zposition Xrotation Yrotation Zrotation
											JOINT Character1_RightHandRing4
											{
												OFFSET -2.446423 -0.395401 -0.528361
												CHANNELS 6 Xposition Yposition Zposition Xrotation Yrotation Zrotation
												End Site
												{
													OFFSET -2.430859 -0.503899 -0.507441
												}
											}
										}
									}
								}
								JOINT Character1_RightHandPinky1
								{
									OFFSET -6.585262 -0.139153 -2.765680
									CHANNELS 6 Xposition Yposition Zposition Xrotation Yrotation Zrotation
									JOINT Character1_RightHandPinky2
									{
										OFFSET -1.631413 -0.601036 -0.502742
										CHANNELS 6 Xposition Yposition Zposition Xrotation Yrotation Zrotation
										JOINT Character1_RightHandPinky3
										{
											OFFSET -1.227207 -0.469040 -0.457860
											CHANNELS 6 Xposition Yposition Zposition Xrotation Yrotation Zrotation
											JOINT Character1_RightHandPinky4
											{
												OFFSET -1.696110 -0.584045 -0.687750
												CHANNELS 6 Xposition Yposition Zposition Xrotation Yrotation Zrotation
												End Site
												{
													OFFSET -1.689350 -0.584435 -0.703875
												}
											}
										}
									}
								}
							}
						}
					}
				}
				JOINT Character1_Neck
				{
					OFFSET -0.000001 15.167763 -4.080687
					CHANNELS 6 Xposition Yposition Zposition Xrotation Yrotation Zrotation
					JOINT Character1_Head
					{
						OFFSET -0.000001 7.825302 -0.202157
						CHANNELS 6 Xposition Yposition Zposition Xrotation Yrotation Zrotation
						JOINT J_R_HairTail_00
						{
							OFFSET -6.209000 2.264816 -7.399083
							CHANNELS 6 Xposition Yposition Zposition Xrotation Yrotation Zrotation
							End Site
							{
								OFFSET -2.180591 -11.067337 -2.694725
							}
						}
					}
				}
				JOINT J_R_Mune_00
				{
					OFFSET -2.925001 2.684891 0.061887
					CHANNELS 6 Xposition Yposition Zposition Xrotation Yrotation Zrotation
					JOINT J_R_Mune_01
					{
						OFFSET -7.794388 2.801010 16.635391
						CHANNELS 6 Xposition Yposition Zposition Xrotation Yrotation Zrotation
						JOINT J_R_Mune_02
						{
							OFFSET 6.838630 -2.377007 -14.605499
							CHANNELS 6 Xposition Yposition Zposition Xrotation Yrotation Zrotation
							End Site
							{
								OFFSET -14.795670 -0.834061 -6.791919
							}
						}
					}
				}
				JOINT J_L_Mune_00
				{
					OFFSET 2.925019 2.684776 0.061883
					CHANNELS 6 Xposition Yposition Zposition Xrotation Yrotation Zrotation
					JOINT J_L_Mune_01
					{
						OFFSET 7.794374 2.801254 16.635433
						CHANNELS 6 Xposition Yposition Zposition Xrotation Yrotation Zrotation
						JOINT J_L_Mune_02
						{
							OFFSET -6.838619 -2.376648 -14.605538
							CHANNELS 3 Xrotation Yrotation Zrotation
							End Site
							{
								OFFSET 14.795649 -0.834076 -6.791907
							}
						}
					}
				}
			}
		}
	}
}
MOTION
Frames: 3
Frame Time: 0.033333
-0.440371 82.864685 -0.691185 9.744749 1.965669 0.102848 7.276832 -6.057782 0.207883 -37.551936 -9.961920 -5.550383 -1.823141 -35.110462 -1.568850 66.097271 4.414650 0.179723 -1.031196 -37.817066 -1.726822 -2.678665 0.221805 -2.185272 0.202458 -5.287529 8.122423 0.000016 0.000217 -0.000748 -7.276830 -6.057767 0.207878 -28.606454 -1.925841 1.998712 1.823196 -35.109619 -1.587621 37.175186 5.650992 0.539695 1.031268 -37.817829 -1.710086 -17.912426 0.568798 -5.221464 -0.202449 -5.287761 8.122276 0.000000 -0.000177 -0.000478 -0.000001 2.271347 0.818149 -3.773846 1.965159 -0.154075 -0.000001 9.085918 0.955445 11.004653 -1.373350 0.410362 -0.000002 8.765558 -0.142868 16.761346 -2.364225 0.591126 4.211488 11.612241 -3.873796 0.307839 7.129638 -2.476754 5.543690 0.000015 -0.000002 10.388963 -13.979912 -64.345614 23.377415 -0.123467 0.033365 36.332611 -104.974359 45.794123 16.247721 -0.118855 0.035834 17.728634 -9.294240 -8.213478 2.510405 -0.904059 2.091599 -2.573655 -1.715340 7.431960 2.570465 -1.130477 1.584526 4.641678 14.920038 2.292934 1.420845 -0.605865 0.842587 5.373820 23.291584 2.709213 2.153465 -0.757791 1.312973 -0.000597 0.001068 -0.006227 8.043887 0.989302 2.480767 11.299727 17.819754 -13.063437 2.427018 0.011870 0.268367 1.009803 -0.384888 -47.955769 1.609927 0.007856 0.037313 5.070272 0.479702 -72.267110 2.130017 0.049421 0.114425 -0.003034 -0.004162 -0.000940 8.038185 1.007413 0.439322 3.402590 2.055738 -12.166981 2.527051 -0.234447 -0.080976 -3.028510 2.088211 -64.567827 1.931314 -0.179351 -0.117775 -2.252891 5.901669 -96.157070 2.197006 0.041219 -0.161455 -0.002892 -0.003966 0.001089 7.662092 0.616492 -1.366736 -10.608050 -12.037190 -28.589787 2.249850 -0.592645 -0.461930 -1.252469 1.316806 -32.604847 1.521791 -0.400851 -0.248311 -3.135660 22.662187 -116.846628 2.446367 -0.396073 -0.528468 -0.003502 -0.001517 0.000917 6.585151 -0.139009 -2.766178 -11.889267 -21.246586 8.769429 1.631430 -0.600645 -0.502818 -9.086309 6.924465 -32.750959 1.227244 -0.468972 -0.457922 -8.158310 30.499506 -96.670645 1.696033 -0.584245 -0.687823 -0.000669 -0.000098 -0.000273 -4.211487 11.612226 -3.873795 0.000245 0.000245 0.000000 -5.543740 0.000004 0.000001 10.982220 2.423215 74.567914 -23.377594 -0.123570 0.033388 45.671747 115.606115 -52.092620 -16.247570 -0.118858 0.036257 21.620585 2.808388 -3.529208 -2.510388 -0.904096 2.091559 -7.055071 -0.039764 -13.731540 -2.579423 -1.121676 1.537412 6.117487 -19.520664 -2.673147 -1.429549 -0.616757 0.819527 7.326928 -30.564929 -3.014639 -2.167618 -0.774656 1.279515 0.009700 0.003596 -0.006194 -8.043801 0.988881 2.481294 10.189775 -6.922010 14.273065 -2.426999 0.011943 0.268456 0.647796 0.129695 54.150925 -1.609985 0.007920 0.037373 5.289920 -1.205012 74.972589 -2.129982 0.049047 0.114513 -0.001458 -0.008588 0.004726 -8.038183 1.006857 0.439864 -12.063993 5.121940 22.478484 -2.527005 -0.234060 -0.080880 -2.282049 -1.017244 60.455193 -1.931482 -0.179070 -0.117685 -2.634257 -3.877458 86.415267 -2.197001 0.042796 -0.161359 -0.001667 -0.002935 -0.003733 -7.662138 0.615833 -1.366223 -18.192228 18.329707 27.524733 -2.249889 -0.592050 -0.461844 -0.892313 -0.318855 29.239394 -1.521882 -0.400464 -0.248261 -9.282731 -12.036912 97.628620 -2.446433 -0.395384 -0.528379 0.003536 0.000719 0.007119 -6.585269 -0.139159 -2.765689 -25.880922 22.983178 -15.675084 -1.631421 -0.601033 -0.502740 -9.199255 -7.078926 33.283963 -1.227210 -0.469046 -0.457846 -5.768971 -32.184183 97.834387 -1.696101 -0.584056 -0.687743 0.003727 0.003630 -0.005545 -0.000001 15.167768 -4.080682 -11.466957 -0.700641 0.461622 -0.000001 7.825299 -0.202158 -11.301164 -0.377719 0.502708 -6.208997 2.264827 -7.399090 15.812976 -2.095014 -3.601821 -2.925002 2.684883 0.061890 0.000001 0.000002 0.000000 -7.794384 2.801009 16.635389 0.000001 -0.000001 -0.000000 6.838636 -2.376991 -14.605512 0.000001 0.000000 -0.000001 2.925019 2.684784 0.061888 0.000005 0.000000 0.000000 7.794376 2.801262 16.635433 0.000000 -0.000000 0.000001 -0.000002 0.000000 0.000001 
-0.396315 83.387016 -0.471579 9.744826 1.965694 0.102865 7.276832 -6.057804 0.207885 -44.385933 -8.705071 -6.463639 -1.823140 -35.110474 -1.568848 79.648024 3.852476 0.548963 -1.031196 -37.817066 -1.726818 7.814901 -0.259256 -2.587998 0.202457 -5.287533 8.122425 0.000021 0.000222 -0.000788 -7.276830 -6.057769 0.207880 -22.837721 -0.969063 2.517919 1.823195 -35.109619 -1.587617 35.930234 3.799791 0.416564 1.031268 -37.817833 -1.710081 -8.461974 0.373432 -5.205157 -0.202449 -5.287758 8.122278 0.000074 -0.000214 -0.000458 -0.000001 2.271337 0.818149 -3.840607 1.963979 -0.165530 -0.000001 9.085945 0.955445 10.787538 -1.374785 0.405113 -0.000002 8.765561 -0.142865 17.585780 -2.093508 0.325936 4.211487 11.612244 -3.873792 0.097086 7.135597 -0.780652 5.543697 0.000020 0.000004 10.302058 -11.631010 -65.037314 23.377417 -0.123474 0.033364 60.328773 -100.749183 68.663079 16.247726 -0.118847 0.035830 16.485481 -13.032104 -4.703801 2.510404 -0.904046 2.091609 -2.573642 -1.715372 7.431988 2.570473 -1.130471 1.584519 4.641684 14.920082 2.292946 1.420837 -0.605853 0.842601 5.373878 23.291609 2.709183 2.153456 -0.757816 1.312963 -0.000603 0.001066 -0.006197 8.043890 0.989300 2.480768 11.299707 17.819706 -13.063511 2.427020 0.011867 0.268374 1.009779 -0.384828 -47.955670 1.609939 0.007863 0.037317 5.070413 0.479486 -72.267117 2.130022 0.049426 0.114439 -0.003264 -0.004177 -0.000965 8.038182 1.007434 0.439338 3.402520 2.055649 -12.167066 2.527046 -0.234454 -0.080972 -3.028475 2.088286 -64.567786 1.931311 -0.179368 -0.117767 -2.252876 5.901558 -96.157001 2.197002 0.041219 -0.161456 -0.003015 -0.004024 0.001113 7.662092 0.616504 -1.366720 -10.608129 -12.037184 -28.589823 2.249865 -0.592637 -0.461939 -1.252426 1.316891 -32.604833 1.521798 -0.400874 -0.248331 -3.135667 22.662230 -116.846587 2.446364 -0.396096 -0.528465 -0.003454 -0.001550 0.000903 6.585140 -0.138990 -2.766162 -11.889466 -21.246685 8.769208 1.631420 -0.600632 -0.502829 -9.086209 6.924495 -32.750849 1.227252 -0.468963 -0.457903 -8.158255 30.499516 -96.670550 1.696032 -0.584239 -0.687829 -0.000546 -0.000135 -0.000312 -4.211487 11.612239 -3.873794 0.002994 0.288029 -0.555235 -5.543736 0.000027 -0.000003 5.937618 4.752221 72.729022 -23.377598 -0.123557 0.033389 43.383056 115.666453 -52.331871 -16.247570 -0.118856 0.036250 21.635333 4.641840 -3.274528 -2.510393 -0.904107 2.091558 -7.055007 -0.039686 -13.731503 -2.579428 -1.121681 1.537403 6.117514 -19.520614 -2.673134 -1.429538 -0.616767 0.819528 7.326881 -30.565011 -3.014637 -2.167633 -0.774655 1.279515 0.009745 0.003599 -0.006224 -8.043801 0.988875 2.481288 10.189812 -6.921980 14.273070 -2.426990 0.011940 0.268466 0.647742 0.129625 54.151007 -1.610002 0.007927 0.037378 5.290011 -1.205057 74.972548 -2.129967 0.049044 0.114504 -0.001416 -0.008633 0.004733 -8.038177 1.006844 0.439850 -12.063969 5.121959 22.478429 -2.527004 -0.234061 -0.080878 -2.282077 -1.017330 60.455254 -1.931467 -0.179065 -0.117690 -2.634129 -3.877427 86.415239 -2.196984 0.042810 -0.161374 -0.001696 -0.002946 -0.003689 -7.662127 0.615838 -1.366221 -18.192243 18.329735 27.524756 -2.249892 -0.592040 -0.461834 -0.892340 -0.318855 29.239411 -1.521883 -0.400465 -0.248250 -9.282686 -12.036998 97.628702 -2.446427 -0.395383 -0.528367 0.003589 0.000721 0.007153 -6.585258 -0.139161 -2.765700 -25.880862 22.983226 -15.674929 -1.631408 -0.601038 -0.502747 -9.199321 -7.079008 33.283829 -1.227203 -0.469037 -0.457863 -5.768982 -32.184309 97.834373 -1.696103 -0.584062 -0.687751 0.003840 0.003629 -0.005497 -0.000001 15.167764 -4.080677 -11.245091 -0.828374 0.477615 -0.000001 7.825299 -0.202162 -10.819704 -0.660998 0.499139 -6.208995 2.264829 -7.399082 17.446190 -2.251842 -3.815279 -2.925001 2.684891 0.061894 0.000001 0.000002 -0.000000 -7.794385 2.801009 16.635389 0.000004 -0.000001 -0.000000 6.838628 -2.377006 -14.605494 -0.000003 0.000000 0.000001 2.925019 2.684792 0.061886 0.000001 0.000004 -0.000000 7.794375 2.801256 16.635431 -0.000005 -0.000000 0.000001 0.000000 0.000000 0.000001 
-0.305291 84.679100 0.061812 9.744779 1.965751 0.102865 7.276834 -6.057796 0.207880 -49.464899 -7.693523 -7.148433 -1.823139 -35.110458 -1.568840 88.127090 3.631995 1.045721 -1.031196 -37.817074 -1.726819 19.006340 -0.841822 -2.800079 0.202457 -5.287532 8.122427 0.000023 0.000214 -0.000769 -7.276830 -6.057758 0.207880 -13.869604 -0.550219 2.648009 1.823195 -35.109627 -1.587618 29.313994 2.566837 0.465580 1.031268 -37.817829 -1.710082 4.806211 0.162462 -5.422522 -0.202449 -5.287759 8.122279 0.000105 -0.000286 -0.000516 -0.000001 2.271333 0.818148 -3.428685 1.961761 -0.183900 -0.000001 9.085951 0.955444 10.260006 -1.378246 0.392349 -0.000002 8.765561 -0.142871 18.097419 -1.436065 -0.318246 4.211488 11.612241 -3.873799 -0.104185 7.135476 0.839745 5.543690 0.000025 -0.000013 10.785626 -6.446987 -65.534040 23.377399 -0.123477 0.033362 125.125323 -102.412109 135.286226 16.247711 -0.118853 0.035826 15.401831 -17.165085 -0.930782 2.510398 -0.904055 2.091604 -2.573646 -1.715454 7.431890 2.570473 -1.130473 1.584518 4.641665 14.920137 2.292956 1.420844 -0.605862 0.842581 5.373743 23.291580 2.709231 2.153471 -0.757803 1.312968 -0.000592 0.001048 -0.006125 8.043882 0.989308 2.480765 11.299798 17.819695 -13.063468 2.427032 0.011863 0.268364 1.009768 -0.384932 -47.955831 1.609954 0.007852 0.037311 5.070399 0.479224 -72.267090 2.130015 0.049441 0.114424 -0.003562 -0.004232 -0.000955 8.038173 1.007433 0.439338 3.402572 2.055717 -12.167118 2.527045 -0.234443 -0.080973 -3.028503 2.088043 -64.567793 1.931314 -0.179334 -0.117769 -2.253126 5.901835 -96.156858 2.196991 0.041226 -0.161461 -0.002862 -0.003900 0.001073 7.662086 0.616501 -1.366727 -10.608161 -12.037238 -28.589862 2.249870 -0.592641 -0.461935 -1.252430 1.316865 -32.604892 1.521793 -0.400856 -0.248311 -3.135688 22.662429 -116.846587 2.446376 -0.396072 -0.528471 -0.003367 -0.001553 0.000899 6.585137 -0.139007 -2.766168 -11.889358 -21.246702 8.769292 1.631433 -0.600638 -0.502823 -9.086245 6.924428 -32.750877 1.227241 -0.468945 -0.457905 -8.158232 30.499633 -96.670645 1.696029 -0.584238 -0.687817 -0.000510 -0.000140 -0.000307 -4.211487 11.612245 -3.873797 0.031394 0.961440 -1.855774 -5.543740 0.000015 -0.000004 -5.363322 11.468048 68.772376 -23.377600 -0.123563 0.033375 40.069602 114.871788 -55.609020 -16.247581 -0.118854 0.036254 21.538505 9.015786 -2.660737 -2.510396 -0.904082 2.091570 -7.055179 -0.039757 -13.731510 -2.579426 -1.121682 1.537414 6.117491 -19.520530 -2.673136 -1.429547 -0.616749 0.819537 7.326885 -30.565035 -3.014624 -2.167623 -0.774651 1.279506 0.009848 0.003649 -0.006284 -8.043808 0.988890 2.481298 10.189742 -6.922030 14.273144 -2.426996 0.011940 0.268465 0.647759 0.129687 54.151031 -1.610002 0.007922 0.037368 5.289984 -1.205293 74.972487 -2.129977 0.049033 0.114512 -0.001302 -0.008607 0.004753 -8.038179 1.006865 0.439867 -12.064002 5.121949 22.478480 -2.526989 -0.234066 -0.080886 -2.282185 -1.017470 60.455302 -1.931473 -0.179063 -0.117691 -2.633985 -3.877385 86.415164 -2.196985 0.042798 -0.161377 -0.001710 -0.003021 -0.003714 -7.662153 0.615839 -1.366215 -18.192368 18.329706 27.524809 -2.249894 -0.592042 -0.461820 -0.892414 -0.318906 29.239377 -1.521883 -0.400467 -0.248256 -9.282610 -12.036820 97.628689 -2.446423 -0.395389 -0.528356 0.003467 0.000666 0.007164 -6.585273 -0.139149 -2.765682 -25.880900 22.983151 -15.674931 -1.631424 -0.601029 -0.502738 -9.199408 -7.079039 33.283806 -1.227214 -0.469035 -0.457851 -5.768845 -32.184292 97.834455 -1.696105 -0.584052 -0.687742 0.003760 0.003653 -0.005568 -0.000001 15.167761 -4.080690 -10.704718 -1.138539 0.520622 -0.000001 7.825325 -0.202156 -10.298012 -0.967869 0.498132 -6.208996 2.264832 -7.399076 19.080454 -2.414832 -4.024386 -2.925002 2.684883 0.061891 0.000001 -0.000002 0.000000 -7.794385 2.800994 16.635389 0.000003 0.000001 -0.000001 6.838635 -2.377006 -14.605503 -0.000003 -0.000000 -0.000002 2.925019 2.684791 0.061884 0.000005 0.000002 -0.000000 7.794374 2.801254 16.635426 0.000000 0.000002 0.000000 -0.000002 0.000004 -0.000002 
